name 900006_30.mot
datacolumns 153
datarows 4
range 0.76666665 0.79166663
endheader

                time	           pelvis_tx	           pelvis_ty	           pelvis_tz	         pelvis_tilt	         pelvis_list	     pelvis_rotation	       hip_flexion_r	     hip_adduction_r	      hip_rotation_r	        knee_angle_r	       ankle_angle_r	    subtalar_angle_r	         mtp_angle_r	       hip_flexion_l	     hip_adduction_l	      hip_rotation_l	        knee_angle_l	       ankle_angle_l	    subtalar_angle_l	         mtp_angle_l	    lumbar_extension	      lumbar_bending	     lumbar_rotation	     ground_force_vx	     ground_force_vy	     ground_force_vz	     ground_force_px	     ground_force_py	     ground_force_pz	     ground_force_vx	     ground_force_vy	     ground_force_vz	     ground_force_px	     ground_force_py	     ground_force_pz	     ground_torque_x	     ground_torque_y	     ground_torque_z	     ground_torque_x	     ground_torque_y	     ground_torque_z	    ground_marker_px	    ground_marker_py	    ground_marker_pz	    ground_marker_px	    ground_marker_py	    ground_marker_pz	    ground_marker_px	    ground_marker_py	    ground_marker_pz	    ground_marker_px	    ground_marker_py	    ground_marker_pz	    ground_marker_px	    ground_marker_py	    ground_marker_pz	    ground_marker_px	    ground_marker_py	    ground_marker_pz	    ground_marker_px	    ground_marker_py	    ground_marker_pz	    ground_marker_px	    ground_marker_py	    ground_marker_pz	    ground_marker_px	    ground_marker_py	    ground_marker_pz	    ground_marker_px	    ground_marker_py	    ground_marker_pz	    ground_marker_px	    ground_marker_py	    ground_marker_pz	    ground_marker_px	    ground_marker_py	    ground_marker_pz	    ground_marker_px	    ground_marker_py	    ground_marker_pz	    ground_marker_px	    ground_marker_py	    ground_marker_pz	    ground_marker_px	    ground_marker_py	    ground_marker_pz	    ground_marker_px	    ground_marker_py	    ground_marker_pz	    ground_marker_px	    ground_marker_py	    ground_marker_pz	    ground_marker_px	    ground_marker_py	    ground_marker_pz	    ground_marker_px	    ground_marker_py	    ground_marker_pz	    ground_marker_px	    ground_marker_py	    ground_marker_pz	    ground_marker_px	    ground_marker_py	    ground_marker_pz	    ground_marker_px	    ground_marker_py	    ground_marker_pz	    ground_marker_px	    ground_marker_py	    ground_marker_pz	    ground_marker_px	    ground_marker_py	    ground_marker_pz	    ground_marker_px	    ground_marker_py	    ground_marker_pz	    ground_marker_px	    ground_marker_py	    ground_marker_pz	    ground_marker_px	    ground_marker_py	    ground_marker_pz	    ground_marker_px	    ground_marker_py	    ground_marker_pz	    ground_marker_px	    ground_marker_py	    ground_marker_pz	    ground_marker_px	    ground_marker_py	    ground_marker_pz	    ground_marker_px	    ground_marker_py	    ground_marker_pz	    ground_marker_px	    ground_marker_py	    ground_marker_pz	    ground_marker_px	    ground_marker_py	    ground_marker_pz	    ground_marker_px	    ground_marker_py	    ground_marker_pz	    ground_marker_px	    ground_marker_py	    ground_marker_pz	    ground_marker_px	    ground_marker_py	    ground_marker_pz	    ground_marker_px	    ground_marker_py	    ground_marker_pz	
          0.76666665	          0.83940130	          0.84837556	         -0.23187587	          1.25741863	         -2.43600798	          0.78370035	         22.87460327	          1.13791275	         -4.95194197	        -45.81458282	          7.35855389	          0.00000000	          0.00000000	         -0.10219193	          0.97874075	         -4.54932642	         -7.28012609	          6.24296331	          0.00000000	          0.00000000	         -6.85421515	          2.56766820	         -2.40663600	          0.00000000	          0.00000000	          0.00000000	          0.80098750	          0.00000000	         -0.15450712	         -1.79803924	        317.30093290	         12.07593509	          0.77937073	          0.00000000	         -0.25899936	          0.00000000	          0.00000000	          0.00000000	          0.00000000	         -2.05486206	          0.00000000	          0.80265385	          0.77705425	         -0.23645200	          0.79588830	          0.77640253	         -0.17942801	          0.80941939	          0.77770597	         -0.29347599	          0.89591521	          0.43191010	         -0.15820611	          0.73514998	          0.42915496	         -0.27487576	          0.78213292	          0.10715270	         -0.15596865	          0.73131126	          0.06517299	         -0.25997227	          0.83940130	          0.84837556	         -0.23187587	          0.84174937	          0.85268545	         -0.12205448	          0.83705324	          0.84406567	         -0.34169725	          0.66396838	          0.88417101	         -0.19073309	          0.66608590	          0.88000572	         -0.24390838	          0.91162550	          0.43827134	         -0.09814391	          0.76386935	          0.41476893	         -0.33324626	          0.91284120	          0.43756160	         -0.22391158	          0.75668067	          0.42388871	         -0.21535908	          0.77523142	          0.10974819	         -0.11920069	          0.72244877	          0.06436104	         -0.29537067	          0.78342927	          0.09898273	         -0.18869194	          0.72674745	          0.06810606	         -0.22627193	          0.73221272	          1.27539754	         -0.23498045	          0.83635175	          1.20017552	         -0.18151768	          0.83894914	          1.20034349	         -0.28737411	          0.83488125	          1.20014989	         -0.23759288	          0.83787555	          1.09803927	         -0.24019797	          0.98164630	          0.61504054	         -0.12726952	          0.87383074	          0.55733299	         -0.35802129	          0.91685683	          0.62984681	         -0.09287725	          0.85701364	          0.60658604	         -0.29427794	          0.92841083	          0.57236797	         -0.09898985	          0.84359139	          0.54976583	         -0.28321657	          0.93267047	          0.17873171	         -0.12550265	          0.72577047	          0.16198641	         -0.38957104	          0.85653466	          0.18918553	         -0.14755701	          0.72765845	          0.15773234	         -0.31024352	          0.85530227	          0.07201684	         -0.14415738	          0.81791574	          0.04515970	         -0.26080394	
          0.77499998	          0.85033518	          0.84753937	         -0.23235992	          1.30452156	         -2.58128285	          1.01792252	         23.49869537	          1.19611919	         -4.99699593	        -43.58347702	          7.61087942	          0.00000000	          0.00000000	         -1.29114914	          0.93687648	         -4.27100563	         -6.69520187	          6.61231375	          0.00000000	          0.00000000	         -6.86606836	          2.82931376	         -2.59462023	          0.00000000	          0.00000000	          0.00000000	          0.83154320	          0.00000000	         -0.15466094	         -1.19278732	        325.79755906	         11.15508311	          0.78491541	          0.00000000	         -0.25857419	          0.00000000	          0.00000000	          0.00000000	          0.00000000	         -2.22559619	          0.00000000	          0.81356966	          0.77617604	         -0.23667587	          0.80704629	          0.77562469	         -0.17962262	          0.82009310	          0.77672738	         -0.29372913	          0.90942961	          0.43189695	         -0.15891021	          0.74202126	          0.42850327	         -0.27452463	          0.81436926	          0.10173549	         -0.15583678	          0.73163313	          0.06533042	         -0.25946265	          0.85033518	          0.84753937	         -0.23235992	          0.85317248	          0.85204047	         -0.12257248	          0.84749788	          0.84303826	         -0.34214735	          0.67510271	          0.88331497	         -0.19024128	          0.67712927	          0.87901354	         -0.24308880	          0.92718530	          0.43893430	         -0.09877451	          0.76762164	          0.41451168	         -0.33278164	          0.92558944	          0.43709216	         -0.22321405	          0.76502562	          0.42240790	         -0.21473944	          0.80730253	          0.10407883	         -0.11908327	          0.72264689	          0.06461539	         -0.29483193	          0.81629103	          0.09409845	         -0.18865606	          0.72711784	          0.06802961	         -0.22571397	          0.74321985	          1.27449703	         -0.23510930	          0.84751785	          1.19909096	         -0.18112344	          0.85003591	          1.19952655	         -0.28718391	          0.84600514	          1.19920623	         -0.23729873	          0.84902942	          1.09710336	         -0.24016272	          0.99423689	          0.61586916	         -0.12846190	          0.88049585	          0.55540025	         -0.35771376	          0.92950666	          0.63036019	         -0.09351013	          0.86460727	          0.60499531	         -0.29359290	          0.94140881	          0.57276428	         -0.09935374	          0.85144740	          0.54903346	         -0.28289545	          0.96131122	          0.18108739	         -0.12536758	          0.72658437	          0.16203561	         -0.38915831	          0.88524491	          0.18768643	         -0.14721765	          0.72862607	          0.15771899	         -0.30945349	          0.88962281	          0.07057486	         -0.14288180	          0.81807822	          0.04502884	         -0.26039055	
          0.78333330	          0.86133564	          0.84649956	         -0.23276886	          1.38518715	         -2.68393493	          1.24034679	         24.00389099	          1.19558847	         -4.95734453	        -41.24271774	          7.68330383	          0.00000000	          0.00000000	         -2.53735638	          0.92297548	         -3.96708894	         -6.09676886	          6.99841642	          0.00000000	          0.00000000	         -7.08294678	          3.03027558	         -2.86258125	          0.00000000	          0.00000000	          0.00000000	          0.86190233	          0.00000000	         -0.15481384	         -0.41674839	        334.32899994	         10.54930051	          0.79061139	          0.00000000	         -0.25816357	          0.00000000	          0.00000000	          0.00000000	          0.00000000	         -2.38275757	          0.00000000	          0.82456058	          0.77508503	         -0.23689300	          0.81825829	          0.77458888	         -0.17981440	          0.83086288	          0.77558118	         -0.29397160	          0.92348754	          0.43105403	         -0.15938886	          0.74628419	          0.42881778	         -0.27419114	          0.84667355	          0.09689962	         -0.15565085	          0.73193085	          0.06550536	         -0.25891396	          0.86133564	          0.84649956	         -0.23276886	          0.86462206	          0.85111898	         -0.12299814	          0.85804915	          0.84188008	         -0.34253958	          0.68632203	          0.88212019	         -0.18972705	          0.68825358	          0.87771475	         -0.24229455	          0.94233572	          0.43923309	         -0.09921556	          0.77144736	          0.41425556	         -0.33233902	          0.93926585	          0.43543524	         -0.22203612	          0.76991308	          0.42305440	         -0.21256307	          0.83938247	          0.09898130	         -0.11892542	          0.72283143	          0.06488411	         -0.29425606	          0.84962571	          0.08825137	         -0.18814778	          0.72742391	          0.06788124	         -0.22511213	          0.75409162	          1.27368379	         -0.23499463	          0.85852945	          1.19760549	         -0.18106733	          0.86114872	          1.19823563	         -0.28689918	          0.85707027	          1.19783151	         -0.23713124	          0.85981959	          1.09572661	         -0.24018773	          1.00656521	          0.61609674	         -0.12965928	          0.88726366	          0.55340964	         -0.35731408	          0.94185871	          0.62995160	         -0.09460764	          0.87241584	          0.60305339	         -0.29294771	          0.95418978	          0.57294476	         -0.09978887	          0.85838109	          0.54787999	         -0.28195757	          0.98950636	          0.18378718	         -0.12492606	          0.72742295	          0.16213140	         -0.38873982	          0.91359192	          0.18513922	         -0.14701617	          0.72957563	          0.15770280	         -0.30852360	          0.92377317	          0.06961074	         -0.14147434	          0.81826395	          0.04491643	         -0.25997281	
          0.79166663	          0.87242115	          0.84527010	         -0.23309156	          1.49198532	         -2.74129486	          1.45016873	         24.40118790	          1.13491344	         -4.83037615	        -38.80682755	          7.59402466	          0.00000000	          0.00000000	         -3.83089066	          0.94031733	         -3.66819906	         -5.49095201	          7.40958023	          0.00000000	          0.00000000	         -7.38511562	          3.10691667	         -3.09271979	          0.00000000	          0.00000000	          0.00000000	          0.89198191	          0.00000000	         -0.15496534	          0.67920268	        342.85185091	         10.30540447	          0.79644897	          0.00000000	         -0.25778079	          0.00000000	          0.00000000	          0.00000000	          0.00000000	         -2.51139990	          0.00000000	          0.83571136	          0.77376819	         -0.23706466	          0.82963371	          0.77328593	         -0.17996158	          0.84178907	          0.77425039	         -0.29416773	          0.93801850	          0.42973241	         -0.15958188	          0.74993628	          0.43004012	         -0.27382505	          0.87894666	          0.09269731	         -0.15542506	          0.73221397	          0.06568824	         -0.25831804	          0.87242115	          0.84527010	         -0.23309156	          0.87611538	          0.84993076	         -0.12331529	          0.86872697	          0.84060943	         -0.34286782	          0.69761211	          0.88061184	         -0.18920185	          0.69943595	          0.87616402	         -0.24155125	          0.95711118	          0.43918860	         -0.09944977	          0.77534968	          0.41399613	         -0.33190995	          0.95297682	          0.43383479	         -0.22147347	          0.77376449	          0.42328975	         -0.21179751	          0.87138951	          0.09449171	         -0.11873828	          0.72300905	          0.06515812	         -0.29363427	          0.88295078	          0.08242235	         -0.18735391	          0.72791541	          0.06793738	         -0.22449151	          0.76532733	          1.27256823	         -0.23454912	          0.86972666	          1.19591510	         -0.18185975	          0.87239254	          1.19658101	         -0.28705865	          0.86829221	          1.19617081	         -0.23760879	          0.87066770	          1.09405792	         -0.24071160	          1.01865244	          0.61577910	         -0.13084178	          0.89412820	          0.55134583	         -0.35688126	          0.95396417	          0.62892485	         -0.09522915	          0.88054168	          0.60095984	         -0.29196182	          0.96697307	          0.57247138	         -0.10015370	          0.86512440	          0.54600585	         -0.28107032	          1.01719034	          0.18682916	         -0.12423880	          0.72829545	          0.16227384	         -0.38830930	          0.94128519	          0.18210681	         -0.14656614	          0.73073721	          0.15769361	         -0.30782250	          0.95764029	          0.06918089	         -0.14003436	          0.81847686	          0.04482027	         -0.25955898	
